<svg xmlns="http://www.w3.org/2000/svg" viewBox="0 0 256 256" role="img" aria-label="PsychApp">
  <rect width="256" height="256" rx="52" fill="#145db2"/>
  <circle cx="76" cy="80" r="36" fill="#8bd3ff"/>
  <path d="M94 165c0-38 28-68 66-68 22 0 42 10 55 25-11 4-21 14-25 27-4 15 0 30 10 41-12 9-27 14-43 14-36 0-63-12-63-39Z" fill="#1bbf9a"/>
  <path d="M48 177c24-3 39-16 46-39 8 20 24 31 51 33-23 10-34 25-36 45-13-20-33-32-61-39Z" fill="#eef6ff"/>
  <path d="M52 61c37 47 79 80 135 99" fill="none" stroke="#eef6ff" stroke-width="12" stroke-linecap="round"/>
</svg>
